<svg width="307" height="81" viewBox="0 0 307 81" fill="none" xmlns="http://www.w3.org/2000/svg">
<g clip-path="url(#clip0_1_3324)">
<path d="M185.172 46.2879C185.172 35.2893 193.122 26.4119 204.222 26.4119C215.636 26.4119 222.72 35.2892 222.72 46.9164V48.6448H192.65C193.201 55.0868 197.924 60.429 205.56 60.429C209.574 60.429 213.983 58.8578 216.816 55.951L220.123 60.5862C216.344 64.2786 210.991 66.2426 204.851 66.2426C193.516 66.2426 185.172 58.2293 185.172 46.2879ZM204.222 32.2253C196.586 32.2253 192.965 38.3532 192.571 43.5382H215.793C215.636 38.5103 212.251 32.2253 204.222 32.2253ZM261.09 65.2999H253.061L242.434 50.5302L231.729 65.2999H223.699L237.947 45.8165L224.565 27.3545H232.595L242.434 41.0243L252.195 27.3545H260.225L246.764 45.8165L261.09 65.2999ZM297.948 65.2999H290.863V61.1361C287.872 64.4357 283.542 66.2426 278.426 66.2426C272.128 66.2426 265.2 62.0003 265.2 53.6727C265.2 45.0309 272.049 41.2599 278.426 41.2599C283.542 41.2599 287.95 42.9097 290.863 46.2879V40.003C290.863 35.2892 287.006 32.461 281.574 32.461C277.245 32.461 273.545 34.1108 270.16 37.489L267.09 32.6181C271.34 28.4544 276.536 26.4119 282.676 26.4119C290.942 26.4119 297.948 30.0256 297.948 39.6887V65.2999ZM290.863 56.9723V50.5302C288.738 47.702 285.038 46.2093 281.102 46.2093C275.985 46.2093 272.364 49.2733 272.364 53.7513C272.364 58.2293 275.985 61.2932 281.102 61.2932C285.038 61.2932 288.738 59.8005 290.863 56.9723Z" fill="#0A6EBD"/>
<mask id="mask0_1_3324" style="mask-type:luminance" maskUnits="userSpaceOnUse" x="184" y="26" width="115" height="41">
<path d="M298.314 26.019H184.852V66.6545H298.314V26.019Z" fill="white"/>
<path d="M185.172 46.2879C185.172 35.2893 193.122 26.4119 204.222 26.4119C215.636 26.4119 222.72 35.2892 222.72 46.9164V48.6448H192.65C193.201 55.0868 197.924 60.429 205.56 60.429C209.574 60.429 213.983 58.8578 216.816 55.951L220.123 60.5862C216.344 64.2786 210.991 66.2426 204.851 66.2426C193.516 66.2426 185.172 58.2293 185.172 46.2879ZM204.222 32.2253C196.586 32.2253 192.965 38.3532 192.571 43.5382H215.793C215.636 38.5103 212.251 32.2253 204.222 32.2253ZM261.09 65.2999H253.061L242.434 50.5302L231.729 65.2999H223.699L237.947 45.8165L224.565 27.3545H232.595L242.434 41.0243L252.195 27.3545H260.225L246.764 45.8165L261.09 65.2999ZM297.948 65.2999H290.863V61.1361C287.872 64.4357 283.542 66.2426 278.426 66.2426C272.128 66.2426 265.2 62.0003 265.2 53.6727C265.2 45.0309 272.049 41.2599 278.426 41.2599C283.542 41.2599 287.95 42.9097 290.863 46.2879V40.003C290.863 35.2892 287.006 32.461 281.574 32.461C277.245 32.461 273.545 34.1108 270.16 37.489L267.09 32.6181C271.34 28.4544 276.536 26.4119 282.676 26.4119C290.942 26.4119 297.948 30.0256 297.948 39.6887V65.2999ZM290.863 56.9723V50.5302C288.738 47.702 285.038 46.2093 281.102 46.2093C275.985 46.2093 272.364 49.2733 272.364 53.7513C272.364 58.2293 275.985 61.2932 281.102 61.2932C285.038 61.2932 288.738 59.8005 290.863 56.9723Z" fill="black"/>
</mask>
<g mask="url(#mask0_1_3324)">
<path d="M222.72 48.6447V48.9156H222.992V48.6447H222.72ZM192.65 48.6447V48.3738H192.354L192.38 48.6677L192.65 48.6447ZM216.816 55.9509L217.038 55.7938L216.849 55.5294L216.622 55.7621L216.816 55.9509ZM220.123 60.5861L220.313 60.7798L220.478 60.6178L220.344 60.429L220.123 60.5861ZM192.571 43.5382L192.301 43.5178L192.278 43.8091H192.571V43.5382ZM215.793 43.5382V43.8091H216.073L216.065 43.5298L215.793 43.5382ZM185.443 46.2878C185.443 35.4222 193.288 26.6827 204.222 26.6827V26.1409C192.956 26.1409 184.9 35.1564 184.9 46.2878H185.443ZM204.222 26.6827C209.853 26.6827 214.402 28.8701 217.546 32.4815C220.694 36.097 222.449 41.1564 222.449 46.9163H222.992C222.992 41.0494 221.204 35.8564 217.956 32.1261C214.705 28.3922 210.005 26.1409 204.222 26.1409V26.6827ZM222.449 46.9163V48.6447H222.992V46.9163H222.449ZM222.72 48.3738H192.65V48.9156H222.72V48.3738ZM192.38 48.6677C192.941 55.2357 197.769 60.6999 205.56 60.6999V60.1581C198.079 60.1581 193.461 54.938 192.92 48.6216L192.38 48.6677ZM205.56 60.6999C209.635 60.6999 214.118 59.1075 217.011 56.14L216.622 55.7621C213.847 58.6082 209.514 60.1581 205.56 60.1581V60.6999ZM216.595 56.1081L219.901 60.7432L220.344 60.429L217.038 55.7938L216.595 56.1081ZM219.933 60.3927C216.214 64.0268 210.934 65.9716 204.851 65.9716V66.5134C211.049 66.5134 216.474 64.5304 220.313 60.7798L219.933 60.3927ZM204.851 65.9716C199.249 65.9716 194.4 63.9927 190.953 60.5517C187.505 57.1112 185.443 52.1938 185.443 46.2878H184.9C184.9 52.3235 187.01 57.3835 190.569 60.935C194.127 64.486 199.118 66.5134 204.851 66.5134V65.9716ZM204.222 31.9543C200.323 31.9543 197.435 33.5223 195.476 35.7592C193.524 37.9895 192.501 40.8754 192.301 43.5178L192.842 43.5587C193.035 41.016 194.02 38.2455 195.885 36.1157C197.744 33.9923 200.485 32.4961 204.222 32.4961V31.9543ZM192.571 43.8091H215.793V43.2672H192.571V43.8091ZM216.065 43.5298C215.984 40.964 215.081 38.0743 213.166 35.8212C211.245 33.5603 208.315 31.9543 204.222 31.9543V32.4961C208.157 32.4961 210.935 34.0327 212.752 36.1715C214.577 38.3179 215.445 41.0846 215.522 43.5468L216.065 43.5298ZM261.09 65.2998V65.5707H261.626L261.309 65.1397L261.09 65.2998ZM253.061 65.2998L252.841 65.458L252.922 65.5707H253.061V65.2998ZM242.434 50.5302L242.655 50.3722L242.435 50.0669L242.214 50.3714L242.434 50.5302ZM231.729 65.2998V65.5707H231.867L231.948 65.4588L231.729 65.2998ZM223.699 65.2998L223.48 65.1402L223.165 65.5707H223.699V65.2998ZM237.947 45.8164L238.167 45.9763L238.283 45.8173L238.167 45.6577L237.947 45.8164ZM224.565 27.3544V27.0836H224.034L224.345 27.5134L224.565 27.3544ZM232.595 27.3544L232.815 27.1965L232.734 27.0836H232.595V27.3544ZM242.434 41.0242L242.214 41.1824L242.435 41.4899L242.655 41.1816L242.434 41.0242ZM252.195 27.3544V27.0836H252.055L251.974 27.1973L252.195 27.3544ZM260.225 27.3544L260.444 27.514L260.758 27.0836H260.225V27.3544ZM246.764 45.8164L246.544 45.6572L246.427 45.8173L246.545 45.9768L246.764 45.8164ZM261.09 65.0289H253.061V65.5707H261.09V65.0289ZM253.282 65.1419L242.655 50.3722L242.214 50.6884L252.841 65.458L253.282 65.1419ZM242.214 50.3714L231.509 65.141L231.948 65.4588L242.654 50.6892L242.214 50.3714ZM231.729 65.0289H223.699V65.5707H231.729V65.0289ZM223.919 65.4596L238.167 45.9763L237.728 45.6569L223.48 65.1402L223.919 65.4596ZM238.167 45.6577L224.785 27.1957L224.345 27.5134L237.727 45.9755L238.167 45.6577ZM224.565 27.6253H232.595V27.0836H224.565V27.6253ZM232.374 27.5126L242.214 41.1824L242.655 40.8662L232.815 27.1965L232.374 27.5126ZM242.655 41.1816L252.416 27.5118L251.974 27.1973L242.213 40.867L242.655 41.1816ZM252.195 27.6253H260.225V27.0836H252.195V27.6253ZM260.005 27.1951L246.544 45.6572L246.983 45.976L260.444 27.514L260.005 27.1951ZM246.545 45.9768L260.872 65.4602L261.309 65.1397L246.983 45.6563L246.545 45.9768ZM297.948 65.2998V65.5707H298.219V65.2998H297.948ZM290.863 65.2998H290.591V65.5707H290.863V65.2998ZM290.863 61.136H291.134V60.433L290.662 60.9542L290.863 61.136ZM290.863 46.2878L290.657 46.4647L291.134 47.0182V46.2878H290.863ZM270.16 37.4889L269.93 37.6333L270.111 37.9207L270.351 37.6807L270.16 37.4889ZM267.09 32.6181L266.9 32.4249L266.743 32.5777L266.86 32.7624L267.09 32.6181ZM290.863 56.9722L291.08 57.1348L291.134 57.0627V56.9722H290.863ZM290.863 50.5302H291.134V50.4399L291.08 50.3676L290.863 50.5302ZM297.948 65.0289H290.863V65.5707H297.948V65.0289ZM291.134 65.2998V61.136H290.591V65.2998H291.134ZM290.662 60.9542C287.728 64.1899 283.474 65.9716 278.425 65.9716V66.5134C283.607 66.5134 288.015 64.6816 291.064 61.3178L290.662 60.9542ZM278.425 65.9716C272.231 65.9716 265.472 61.8073 265.472 53.6726H264.929C264.929 62.1933 272.025 66.5134 278.425 66.5134V65.9716ZM265.472 53.6726C265.472 49.4316 267.148 46.4067 269.592 44.4365C272.044 42.4597 275.285 41.5308 278.425 41.5308V40.989C275.187 40.989 271.819 41.9458 269.251 44.0149C266.677 46.0906 264.929 49.2718 264.929 53.6726H265.472ZM278.425 41.5308C283.485 41.5308 287.809 43.1611 290.657 46.4647L291.069 46.1112C288.091 42.6585 283.599 40.989 278.425 40.989V41.5308ZM291.134 46.2878V40.0029H290.591V46.2878H291.134ZM291.134 40.0029C291.134 37.5645 290.133 35.6004 288.423 34.2519C286.721 32.9085 284.335 32.19 281.574 32.19V32.7318C284.245 32.7318 286.504 33.4278 288.086 34.6769C289.663 35.9209 290.591 37.7276 290.591 40.0029H291.134ZM281.574 32.19C277.163 32.19 273.396 33.8753 269.968 37.2974L270.351 37.6807C273.692 34.3464 277.326 32.7318 281.574 32.7318V32.19ZM270.389 37.3448L267.319 32.4739L266.86 32.7624L269.93 37.6333L270.389 37.3448ZM267.28 32.8115C271.477 28.7 276.604 26.6827 282.676 26.6827V26.1409C276.468 26.1409 271.203 28.2088 266.9 32.4249L267.28 32.8115ZM282.676 26.6827C286.775 26.6827 290.526 27.5795 293.246 29.6422C295.955 31.6959 297.676 34.9305 297.676 39.6886H298.219C298.219 34.7839 296.436 31.38 293.575 29.2109C290.727 27.0509 286.843 26.1409 282.676 26.1409V26.6827ZM297.676 39.6886V65.2998H298.219V39.6886H297.676ZM291.134 56.9722V50.5302H290.591V56.9722H291.134ZM291.08 50.3676C288.89 47.4543 285.1 45.9384 281.102 45.9384V46.4802C284.975 46.4802 288.583 47.9495 290.646 50.6927L291.08 50.3676ZM281.102 45.9384C278.491 45.9384 276.24 46.7207 274.636 48.0956C273.032 49.4734 272.093 51.4342 272.093 53.7512H272.636C272.636 51.5905 273.507 49.7803 274.992 48.5065C276.479 47.23 278.596 46.4802 281.102 46.4802V45.9384ZM272.093 53.7512C272.093 56.0685 273.032 58.0293 274.636 59.4068C276.24 60.7819 278.491 61.564 281.102 61.564V61.0222C278.596 61.0222 276.479 60.2726 274.992 58.9961C273.507 57.7224 272.636 55.9122 272.636 53.7512H272.093ZM281.102 61.564C285.1 61.564 288.89 60.0481 291.08 57.1348L290.646 56.8097C288.583 59.5529 284.975 61.0222 281.102 61.0222V61.564Z" fill="#0A6EBD"/>
</g>
<path d="M12.7526 60.0713V80.026H5.66797V27.6253H12.7526V33.046C15.5077 29.2751 20.0734 26.6826 25.19 26.6826C35.1085 26.6826 42.1144 34.1459 42.1144 46.5587C42.1144 58.9714 35.1085 66.5134 25.19 66.5134C20.2308 66.5134 15.8226 64.2351 12.7526 60.0713ZM34.7149 46.5587C34.7149 38.7025 30.3854 32.9675 23.3008 32.9675C18.9713 32.9675 14.6418 35.4814 12.7526 38.5454V54.6505C14.6418 57.6359 18.9713 60.2284 23.3008 60.2284C30.3854 60.2284 34.7149 54.4934 34.7149 46.5587ZM47.7937 60.6212L51.1786 55.4362C53.7763 58.2644 58.8143 60.8569 63.9309 60.8569C69.2837 60.8569 72.1176 58.6572 72.1176 55.4362C72.1176 51.6652 67.7881 50.4082 62.9076 49.3083C56.4527 47.8157 48.8958 46.0873 48.8958 37.9169C48.8958 31.8676 54.0912 26.6826 63.3799 26.6826C69.9135 26.6826 74.6366 29.0394 77.864 32.1033L74.7153 37.0527C72.5112 34.3816 68.2604 32.4175 63.4586 32.4175C58.6568 32.4175 55.6655 34.303 55.6655 37.3669C55.6655 40.6665 59.7589 41.7664 64.4819 42.8663C71.0943 44.3589 78.966 46.1659 78.966 54.8862C78.966 61.4069 73.6132 66.5134 63.6161 66.5134C57.2399 66.5134 51.6509 64.5493 47.7937 60.6212ZM86.0327 80.4188L87.1348 74.0553C88.0007 74.4481 89.3389 74.6838 90.2835 74.6838C92.8812 74.6838 94.613 73.8196 95.7938 70.9914L97.9979 65.9634L82.333 27.6253H89.8899L101.776 57.4002L113.663 27.6253H121.298L102.564 72.7983C100.123 78.769 95.9512 80.8902 90.441 80.9688C89.2602 80.9688 87.1348 80.7331 86.0327 80.4188Z" fill="#0A6EBD"/>
<mask id="mask1_1_3324" style="mask-type:luminance" maskUnits="userSpaceOnUse" x="5" y="26" width="117" height="56">
<path d="M121.877 26.2898H5.15723V81.2831H121.877V26.2898Z" fill="white"/>
<path d="M12.7526 60.0713V80.026H5.66797V27.6253H12.7526V33.046C15.5077 29.2751 20.0734 26.6826 25.19 26.6826C35.1085 26.6826 42.1144 34.1459 42.1144 46.5587C42.1144 58.9714 35.1085 66.5134 25.19 66.5134C20.2308 66.5134 15.8226 64.2351 12.7526 60.0713ZM34.7149 46.5587C34.7149 38.7025 30.3854 32.9675 23.3008 32.9675C18.9713 32.9675 14.6418 35.4814 12.7526 38.5454V54.6505C14.6418 57.6359 18.9713 60.2284 23.3008 60.2284C30.3854 60.2284 34.7149 54.4934 34.7149 46.5587ZM47.7937 60.6212L51.1786 55.4362C53.7763 58.2644 58.8143 60.8569 63.9309 60.8569C69.2837 60.8569 72.1176 58.6572 72.1176 55.4362C72.1176 51.6652 67.7881 50.4082 62.9076 49.3083C56.4527 47.8157 48.8958 46.0873 48.8958 37.9169C48.8958 31.8676 54.0912 26.6826 63.3799 26.6826C69.9135 26.6826 74.6366 29.0394 77.864 32.1033L74.7153 37.0527C72.5112 34.3816 68.2604 32.4175 63.4586 32.4175C58.6568 32.4175 55.6655 34.303 55.6655 37.3669C55.6655 40.6665 59.7589 41.7664 64.4819 42.8663C71.0943 44.3589 78.966 46.1659 78.966 54.8862C78.966 61.4069 73.6132 66.5134 63.6161 66.5134C57.2399 66.5134 51.6509 64.5493 47.7937 60.6212ZM86.0327 80.4188L87.1348 74.0553C88.0007 74.4481 89.3389 74.6838 90.2835 74.6838C92.8812 74.6838 94.613 73.8196 95.7938 70.9914L97.9979 65.9634L82.333 27.6253H89.8899L101.776 57.4002L113.663 27.6253H121.298L102.564 72.7983C100.123 78.769 95.9512 80.8902 90.441 80.9688C89.2602 80.9688 87.1348 80.7331 86.0327 80.4188Z" fill="black"/>
</mask>
<g mask="url(#mask1_1_3324)">
<path d="M12.7525 60.0712L12.9712 59.9108L12.4811 59.246V60.0712H12.7525ZM12.7525 80.0259V80.2968H13.024V80.0259H12.7525ZM5.66793 80.0259H5.39648V80.2968H5.66793V80.0259ZM5.66793 27.6252V27.3543H5.39648V27.6252H5.66793ZM12.7525 27.6252H13.024V27.3543H12.7525V27.6252ZM12.7525 33.0459H12.4811V33.8773L12.9719 33.2058L12.7525 33.0459ZM12.7525 38.5453L12.5214 38.4033L12.4811 38.4686V38.5453H12.7525ZM12.7525 54.6504H12.4811V54.729L12.523 54.7951L12.7525 54.6504ZM12.4811 60.0712V80.0259H13.024V60.0712H12.4811ZM12.7525 79.755H5.66793V80.2968H12.7525V79.755ZM5.93937 80.0259V27.6252H5.39648V80.0259H5.93937ZM5.66793 27.8961H12.7525V27.3543H5.66793V27.8961ZM12.4811 27.6252V33.0459H13.024V27.6252H12.4811ZM12.9719 33.2058C15.6796 29.4995 20.1661 26.9534 25.19 26.9534V26.4116C19.9805 26.4116 15.3357 29.0507 12.5332 32.8864L12.9719 33.2058ZM25.19 26.9534C30.0767 26.9534 34.2311 28.7898 37.167 32.1441C40.1059 35.5014 41.8429 40.402 41.8429 46.5586H42.3858C42.3858 40.3026 40.6198 35.2652 37.5761 31.7876C34.5295 28.307 30.2217 26.4116 25.19 26.4116V26.9534ZM41.8429 46.5586C41.8429 52.7154 40.1057 57.6361 37.1668 61.0131C34.2303 64.3872 30.0759 66.2424 25.19 66.2424V66.7842C30.2225 66.7842 34.5303 64.8686 37.5764 61.3686C40.6201 57.8715 42.3858 52.8148 42.3858 46.5586H41.8429ZM25.19 66.2424C20.3212 66.2424 15.9925 64.0085 12.9712 59.9108L12.5339 60.2318C15.6526 64.4617 20.1403 66.7842 25.19 66.7842V66.2424ZM34.9863 46.5586C34.9863 42.5833 33.891 39.1207 31.875 36.6462C29.855 34.1661 26.9235 32.6965 23.3007 32.6965V33.2383C26.7626 33.2383 29.5382 34.6364 31.454 36.9878C33.3739 39.345 34.4434 42.6779 34.4434 46.5586H34.9863ZM23.3007 32.6965C18.8814 32.6965 14.4623 35.2557 12.5214 38.4033L12.9837 38.6875C14.8213 35.7073 19.0611 33.2383 23.3007 33.2383V32.6965ZM12.4811 38.5453V54.6504H13.024V38.5453H12.4811ZM12.523 54.7951C14.4622 57.8593 18.8784 60.4992 23.3007 60.4992V59.9574C19.0641 59.9574 14.8214 57.4123 12.982 54.5058L12.523 54.7951ZM23.3007 60.4992C26.9236 60.4992 29.8552 59.0299 31.8756 56.5394C33.8913 54.055 34.9863 50.5728 34.9863 46.5586H34.4434C34.4434 50.4793 33.3737 53.832 31.4535 56.1986C29.5379 58.5596 26.7625 59.9574 23.3007 59.9574V60.4992ZM47.7937 60.6211L47.5662 60.4735L47.4473 60.6555L47.5999 60.8108L47.7937 60.6211ZM51.1786 55.4361L51.3786 55.2532L51.1422 54.9956L50.9511 55.2884L51.1786 55.4361ZM62.9076 49.3082L62.8462 49.5724L62.8478 49.5726L62.9076 49.3082ZM77.864 32.1032L78.0931 32.2484L78.2128 32.0604L78.051 31.907L77.864 32.1032ZM74.7152 37.0526L74.5057 37.2249L74.7437 37.5134L74.9443 37.1978L74.7152 37.0526ZM64.4819 42.8662L64.4203 43.13L64.4219 43.1306L64.4819 42.8662ZM48.0212 60.7691L51.406 55.584L50.9511 55.2884L47.5662 60.4735L48.0212 60.7691ZM50.9785 55.6192C53.6251 58.5005 58.7344 61.1277 63.9309 61.1277V60.5859C58.894 60.5859 53.9275 58.0281 51.3786 55.2532L50.9785 55.6192ZM63.9309 61.1277C66.6396 61.1277 68.7473 60.5721 70.1862 59.5771C71.6355 58.575 72.389 57.1371 72.389 55.4361H71.8461C71.8461 56.9561 71.1827 58.2288 69.8771 59.1317C68.5606 60.0419 66.575 60.5859 63.9309 60.5859V61.1277ZM72.389 55.4361C72.389 53.4165 71.2164 52.0839 69.4729 51.1328C67.7422 50.1889 65.4032 49.5929 62.9673 49.0441L62.8478 49.5726C65.2924 50.1236 67.5584 50.7061 69.2126 51.6082C70.854 52.5035 71.8461 53.6849 71.8461 55.4361H72.389ZM62.9689 49.0444C59.7301 48.2956 56.2738 47.4983 53.6224 45.8854C52.3021 45.0824 51.1913 44.0822 50.4096 42.7936C49.6289 41.5062 49.1672 39.9158 49.1672 37.9168H48.6243C48.6243 40.0033 49.1075 41.6926 49.9451 43.0739C50.7823 44.4539 51.9641 45.5113 53.3398 46.3481C56.0805 48.0152 59.6302 48.8285 62.8462 49.5724L62.9689 49.0444ZM49.1672 37.9168C49.1672 34.9739 50.4291 32.2411 52.8287 30.2391C55.2301 28.2355 58.7852 26.9534 63.3799 26.9534V26.4116C58.6858 26.4116 54.9988 27.7221 52.4804 29.8233C49.9601 31.9263 48.6243 34.8106 48.6243 37.9168H49.1672ZM63.3799 26.9534C69.8418 26.9534 74.4984 29.2823 77.6769 32.2996L78.051 31.907C74.7747 28.7965 69.9851 26.4116 63.3799 26.4116V26.9534ZM77.6349 31.958L74.4861 36.9074L74.9443 37.1978L78.0931 32.2484L77.6349 31.958ZM74.9248 36.8806C72.6599 34.1358 68.3258 32.1465 63.4586 32.1465V32.6883C68.195 32.6883 72.3624 34.6275 74.5057 37.2249L74.9248 36.8806ZM63.4586 32.1465C61.0273 32.1465 59.0224 32.623 57.6158 33.5146C56.1986 34.4129 55.3941 35.7319 55.3941 37.3668H55.9369C55.9369 35.9381 56.628 34.7824 57.9068 33.9719C59.1964 33.1546 61.0881 32.6883 63.4586 32.6883V32.1465ZM55.3941 37.3668C55.3941 39.1624 56.5216 40.3357 58.1788 41.1825C59.8275 42.0253 62.0655 42.5817 64.4203 43.13L64.5435 42.6026C62.1752 42.051 60.005 41.5073 58.4263 40.7003C56.856 39.8976 55.9369 38.8712 55.9369 37.3668H55.3941ZM64.4219 43.1306C67.7387 43.8791 71.3119 44.6961 74.0605 46.396C75.4294 47.2429 76.5849 48.3037 77.3993 49.6772C78.2128 51.0493 78.6946 52.7487 78.6946 54.8861H79.2374C79.2374 52.6636 78.7353 50.867 77.8664 49.4012C76.9981 47.9364 75.7722 46.8173 74.3466 45.9355C71.5063 44.179 67.8375 43.3459 64.5419 42.602L64.4219 43.1306ZM78.6946 54.8861C78.6946 58.0668 77.3917 60.8956 74.8691 62.9347C72.342 64.9773 68.5706 66.2424 63.616 66.2424V66.7842C68.6588 66.7842 72.5622 65.4963 75.2109 63.3556C77.864 61.2112 79.2374 58.2261 79.2374 54.8861H78.6946ZM63.616 66.2424C57.2941 66.2424 51.782 64.2957 47.9875 60.4315L47.5999 60.8108C51.5198 64.8031 57.1858 66.7842 63.616 66.7842V66.2424ZM86.0327 80.4187L85.7653 80.3727L85.7238 80.6124L85.9583 80.6793L86.0327 80.4187ZM87.1348 74.0552L87.2471 73.8087L86.9271 73.6635L86.8674 74.0092L87.1348 74.0552ZM95.7937 70.9913L95.5451 70.8829L95.5443 70.8851L95.5432 70.8873L95.7937 70.9913ZM97.9978 65.9633L98.2467 66.072L98.2926 65.9671L98.2492 65.8612L97.9978 65.9633ZM82.333 27.6252V27.3543H81.9293L82.0816 27.7276L82.333 27.6252ZM89.8899 27.6252L90.1421 27.5249L90.0739 27.3543H89.8899V27.6252ZM101.776 57.4001L101.524 57.5006L101.776 58.1321L102.028 57.5006L101.776 57.4001ZM113.663 27.6252V27.3543H113.479L113.411 27.5249L113.663 27.6252ZM121.298 27.6252L121.549 27.7289L121.705 27.3543H121.298V27.6252ZM102.563 72.7982L102.313 72.6947L102.312 72.6961L102.563 72.7982ZM90.4409 80.9687V81.2396H90.4428H90.445L90.4409 80.9687ZM86.3004 80.4651L87.4024 74.1015L86.8674 74.0092L85.7653 80.3727L86.3004 80.4651ZM87.0227 74.302C87.9309 74.7141 89.309 74.9546 90.2835 74.9546V74.4128C89.369 74.4128 88.0707 74.1823 87.2471 73.8087L87.0227 74.302ZM90.2835 74.9546C91.6108 74.9546 92.7503 74.7344 93.7148 74.1273C94.6811 73.5194 95.4398 72.5441 96.0443 71.0956L95.5432 70.8873C94.9672 72.267 94.2696 73.1379 93.4254 73.6689C92.5793 74.2012 91.5541 74.4128 90.2835 74.4128V74.9546ZM96.0426 71.0999L98.2467 66.072L97.7492 65.855L95.5451 70.8829L96.0426 71.0999ZM98.2492 65.8612L82.5843 27.523L82.0816 27.7276L97.7465 66.0657L98.2492 65.8612ZM82.333 27.8961H89.8899V27.3543H82.333V27.8961ZM89.6377 27.7257L101.524 57.5006L102.028 57.2999L90.1421 27.5249L89.6377 27.7257ZM102.028 57.5006L113.915 27.7257L113.411 27.5249L101.524 57.2999L102.028 57.5006ZM113.663 27.8961H121.298V27.3543H113.663V27.8961ZM121.048 27.5217L102.313 72.6947L102.814 72.902L121.549 27.7289L121.048 27.5217ZM102.312 72.6961C101.109 75.6403 99.4883 77.6138 97.5084 78.8643C95.5264 80.1161 93.1591 80.659 90.4371 80.698L90.445 81.2396C93.233 81.2 95.7071 80.643 97.7986 79.3221C99.8925 77.9996 101.578 75.9272 102.815 72.9006L102.312 72.6961ZM90.4409 80.6978C89.2781 80.6978 87.179 80.464 86.1074 80.1584L85.9583 80.6793C87.0908 81.0023 89.2425 81.2396 90.4409 81.2396V80.6978Z" fill="#0A6EBD"/>
</g>
<path d="M140.793 60.8453V70.1972C140.029 75.3359 127.815 75.0818 127.306 70.1972V36.6404C127.306 30.0854 135.194 25.7635 140.793 31.8105L149.7 44.5757L158.606 57.5406C164.968 68.2177 176.165 64.4044 176.165 56.5239V48.3889V39.9996V26.2176C176.165 17.6287 157.334 17.6286 157.334 26.2176V38.42" stroke="#0A6EBD" stroke-width="6" stroke-linecap="round"/>
<path d="M166.936 14.4934C170.909 14.4934 174.13 11.2792 174.13 7.31443C174.13 3.34961 170.909 0.135498 166.936 0.135498C162.964 0.135498 159.743 3.34961 159.743 7.31443C159.743 11.2792 162.964 14.4934 166.936 14.4934Z" fill="#0A6EBD" stroke="white"/>
<path d="M160.15 7.20644C162.58 8.20003 168.048 9.23337 172.908 5.41797" stroke="#F5F5F7" stroke-width="3" stroke-linecap="round"/>
<path d="M167.343 9.4817C168.318 9.4817 169.108 8.69333 169.108 7.72083C169.108 6.74833 168.318 5.95996 167.343 5.95996C166.369 5.95996 165.579 6.74833 165.579 7.72083C165.579 8.69333 166.369 9.4817 167.343 9.4817Z" fill="white"/>
<path d="M166.936 14.4934C170.909 14.4934 174.13 11.2792 174.13 7.31443C174.13 3.34961 170.909 0.135498 166.936 0.135498C162.964 0.135498 159.743 3.34961 159.743 7.31443C159.743 11.2792 162.964 14.4934 166.936 14.4934Z" stroke="#F5F5F7"/>
</g>
<defs>
<clipPath id="clip0_1_3324">
<rect width="307" height="81" fill="white"/>
</clipPath>
</defs>
</svg>
