<svg width="611" height="452" viewBox="0 0 611 452" fill="none" xmlns="http://www.w3.org/2000/svg">
<g filter="url(#filter0_d_1_3508)">
<path d="M301.407 378.468L300.681 379.643L294.589 389.491C294.589 389.491 284.891 409.161 291.841 415.191C298.791 421.221 311.463 413.813 317.013 399.427C321.36 388.164 337.335 369.442 344.074 361.844C345.937 359.733 347.1 358.482 347.1 358.482" stroke="#B3D0FF" stroke-width="0.5" stroke-linecap="round" stroke-linejoin="round"/>
<path d="M282.657 282.28C271.954 290.395 251.064 306.703 245.514 314.932C237.626 326.6 227.636 351.478 225.773 356.168C223.91 360.858 225.522 379.391 224.293 387.468C223.051 395.546 218.056 410.4 227.095 412.347C227.095 412.347 248.791 412.852 250.364 390.945C250.364 390.945 254.592 374.979 252.768 366.105C252.768 366.105 263.379 354.803 270.105 341.416C271.069 339.494 272.562 337.864 274.372 336.6C280.768 332.137 295.818 321.645 301.962 317.524L275.615 339.583C273.659 341.214 272.073 343.198 270.911 345.423C267.673 351.643 261.172 364.701 260.247 370.744C259.005 378.822 257.803 385.256 259.111 392.26C260.419 399.25 261.648 424.293 265.044 429.615C268.44 434.937 281.019 434.431 284.639 426.277C288.26 418.111 291.14 407.783 284.111 390.287C284.111 390.287 290.704 381.565 293.532 372.274" stroke="#B3D0FF" stroke-width="0.5" stroke-linecap="round" stroke-linejoin="round"/>
<path d="M610.974 213.751C610.974 213.751 530.609 208.871 491.629 215.508C458.741 221.121 412.943 230.791 379.632 227.593C364.528 226.139 349.28 227.467 334.521 230.842C326.315 232.725 316.841 234.874 306.865 237.137C281.6 242.838 252.504 244.469 243.532 245.999C234.56 247.528 189.344 269.739 179.989 272.937C170.647 276.136 148.831 289.687 147.391 294.858C145.951 300.028 152.967 311.949 172.853 308.232C192.726 304.516 203.839 296.059 203.839 296.059L252.359 284.176C252.359 284.176 289.714 280.434 298.553 281.875C307.393 283.316 342.066 273.797 353.588 284.087C365.097 294.365 345.29 308.245 333.913 315.868C322.536 323.49 311.027 332.883 303.799 340.683C296.571 348.47 288.009 356.497 288.828 363.349C289.647 370.2 302.716 386.343 318.598 378.392C334.481 370.44 359.613 343.413 386.516 340.581C413.405 337.75 467.343 325.488 494.312 303.403C521.28 281.319 611 322.757 611 322.757" stroke="#B3D0FF" stroke-width="0.5" stroke-linecap="round" stroke-linejoin="round"/>
<path d="M309.27 380.503L327.319 362.868C327.319 362.868 325.086 345.979 310.816 342.945C310.816 342.945 292.37 353.589 288.934 360.694" stroke="#B3D0FF" stroke-width="0.5" stroke-linecap="round" stroke-linejoin="round"/>
<path d="M194.55 266.718L235.789 269.512L251.579 244.988L288.26 254.823L275.139 282.28L266.312 250.158" stroke="#B3D0FF" stroke-width="0.5" stroke-linecap="round" stroke-linejoin="round"/>
<path d="M288.26 254.822L300.667 238.452L327.306 259.222L379.089 229.919L419.84 265.466L453.323 251.194L462.612 220.615" stroke="#B3D0FF" stroke-width="0.5" stroke-linecap="round" stroke-linejoin="round"/>
<path d="M187.177 304.364L196.968 283.619L216.577 292.936" stroke="#B3D0FF" stroke-width="0.5" stroke-linecap="round" stroke-linejoin="round"/>
<path d="M196.968 283.62L180.702 272.685L175.654 302.089L150.8 303.707" stroke="#B3D0FF" stroke-width="0.5" stroke-linecap="round" stroke-linejoin="round"/>
<path d="M235.789 269.511L261.873 283.303L266.312 248.931" stroke="#B3D0FF" stroke-width="0.5" stroke-linecap="round" stroke-linejoin="round"/>
<path d="M216.577 292.936L223.58 268.69L235.789 288.196" stroke="#B3D0FF" stroke-width="0.5" stroke-linecap="round" stroke-linejoin="round"/>
<path d="M428.112 225.848L453.323 251.194" stroke="#B3D0FF" stroke-width="0.5" stroke-linecap="round" stroke-linejoin="round"/>
<path d="M419.84 265.466L424.28 242.737L453.323 251.194" stroke="#B3D0FF" stroke-width="0.5" stroke-linecap="round" stroke-linejoin="round"/>
<path d="M394.576 243.42L424.28 242.737" stroke="#B3D0FF" stroke-width="0.5" stroke-linecap="round" stroke-linejoin="round"/>
<path d="M417.383 227.024L408.662 243.04L428.112 225.848" stroke="#B3D0FF" stroke-width="0.5" stroke-linecap="round" stroke-linejoin="round"/>
<path d="M458.793 233.218L482.512 249.323L534.811 222.776L576.222 247.25L606.811 213.523" stroke="#B3D0FF" stroke-width="0.5" stroke-linecap="round" stroke-linejoin="round"/>
<path d="M482.512 249.323L499.61 220.615L519.06 230.766" stroke="#B3D0FF" stroke-width="0.5" stroke-linecap="round" stroke-linejoin="round"/>
<path d="M462.612 220.615L482.512 249.323" stroke="#B3D0FF" stroke-width="0.5" stroke-linecap="round" stroke-linejoin="round"/>
<path d="M519.061 230.766L521.862 212.638L534.811 222.777" stroke="#B3D0FF" stroke-width="0.5" stroke-linecap="round" stroke-linejoin="round"/>
<path d="M546.056 229.426L573.289 220.615L576.222 247.25" stroke="#B3D0FF" stroke-width="0.5" stroke-linecap="round" stroke-linejoin="round"/>
<path d="M587.823 234.445L573.289 220.615" stroke="#B3D0FF" stroke-width="0.5" stroke-linecap="round" stroke-linejoin="round"/>
<path d="M555.437 234.963L532.802 249.323L510.789 234.963" stroke="#B3D0FF" stroke-width="0.5" stroke-linecap="round" stroke-linejoin="round"/>
<path d="M525.429 227.53L532.802 249.323L542.858 227.53" stroke="#B3D0FF" stroke-width="0.5" stroke-linecap="round" stroke-linejoin="round"/>
<path d="M369.788 321.974L394.576 287.273L436.08 330.469L397.721 308.321L369.788 321.974Z" stroke="#B3D0FF" stroke-width="0.5" stroke-linecap="round" stroke-linejoin="round"/>
<path d="M424.28 317.701L462.612 272.685L500.786 299.649" stroke="#B3D0FF" stroke-width="0.5" stroke-linecap="round" stroke-linejoin="round"/>
<path d="M360.511 349.835L369.787 321.974" stroke="#B3D0FF" stroke-width="0.5" stroke-linecap="round" stroke-linejoin="round"/>
<path d="M462.612 272.685V321.278" stroke="#B3D0FF" stroke-width="0.5" stroke-linecap="round" stroke-linejoin="round"/>
<path d="M405.292 298.258L424.28 283.619L443.439 295.199" stroke="#B3D0FF" stroke-width="0.5" stroke-linecap="round" stroke-linejoin="round"/>
<path d="M488.458 290.939L503.363 261.611L540.942 290.939L573.289 260.068L597.906 290.939L576.222 308.32L573.289 260.068" stroke="#B3D0FF" stroke-width="0.5" stroke-linecap="round" stroke-linejoin="round"/>
<path d="M490.533 292.405L505.781 276.692L540.942 290.939H575.165" stroke="#B3D0FF" stroke-width="0.5" stroke-linecap="round" stroke-linejoin="round"/>
<path d="M322.589 323.996L349.307 326.916L365.15 295.199L388.141 296.273" stroke="#B3D0FF" stroke-width="0.5" stroke-linecap="round" stroke-linejoin="round"/>
<path d="M365.149 295.199L356.944 292.405" stroke="#B3D0FF" stroke-width="0.5" stroke-linecap="round" stroke-linejoin="round"/>
<path d="M403.178 338.142L397.721 308.321" stroke="#B3D0FF" stroke-width="0.5" stroke-linecap="round" stroke-linejoin="round"/>
<path d="M424.373 263.633L452.517 284.542L469.008 240.146" stroke="#B3D0FF" stroke-width="0.5" stroke-linecap="round" stroke-linejoin="round"/>
<path d="M264.423 296.526L267.779 317.7L241.405 323.237L243.757 339.406L225.231 358.481" stroke="#B3D0FF" stroke-width="0.5" stroke-linecap="round" stroke-linejoin="round"/>
<path d="M255.609 320.254L261.873 335.904L238.802 344.5" stroke="#B3D0FF" stroke-width="0.5" stroke-linecap="round" stroke-linejoin="round"/>
<path d="M293.585 323.238L271.743 321.974L272.496 338.142" stroke="#B3D0FF" stroke-width="0.5" stroke-linecap="round" stroke-linejoin="round"/>
<path d="M224.795 378.821L237.494 386.444L251.526 385.787" stroke="#B3D0FF" stroke-width="0.5" stroke-linecap="round" stroke-linejoin="round"/>
<path d="M221.809 403.03L237.494 386.444" stroke="#B3D0FF" stroke-width="0.5" stroke-linecap="round" stroke-linejoin="round"/>
<path d="M258.609 387.886L267.779 403.03L263.194 424.09" stroke="#B3D0FF" stroke-width="0.5" stroke-linecap="round" stroke-linejoin="round"/>
<path d="M285.181 393.107L277.293 405.988L282.658 417.289L275.113 422.561L265.044 429.589" stroke="#B3D0FF" stroke-width="0.5" stroke-linecap="round" stroke-linejoin="round"/>
<path d="M281.402 430.323L275.113 422.561" stroke="#B3D0FF" stroke-width="0.5" stroke-linecap="round" stroke-linejoin="round"/>
<path d="M299.65 281.988L301.949 287.272L325.324 283.619L324.386 303.656L347.76 305.527" stroke="#B3D0FF" stroke-width="0.5" stroke-linecap="round" stroke-linejoin="round"/>
<path d="M350.72 302.695L341.682 287.273L324.386 303.656" stroke="#B3D0FF" stroke-width="0.5" stroke-linecap="round" stroke-linejoin="round"/>
<path d="M325.324 283.619L338.709 279.372L341.682 287.273" stroke="#B3D0FF" stroke-width="0.5" stroke-linecap="round" stroke-linejoin="round"/>
</g>
<g opacity="0.65">
<g style="mix-blend-mode:screen">
<path d="M573.341 255.051C572.668 255.013 571.994 254.962 571.32 254.924C571.994 254.962 572.668 255 573.341 255.051Z" fill="url(#paint0_linear_1_3508)"/>
</g>
</g>
<g opacity="0.65">
<g style="mix-blend-mode:screen">
<path d="M214.595 266.769C213.921 266.731 213.247 266.68 212.573 266.642C213.247 266.68 213.921 266.718 214.595 266.769Z" fill="url(#paint1_linear_1_3508)"/>
</g>
</g>
<g filter="url(#filter1_d_1_3508)">
<path d="M72.8531 125.123C68.9419 127.398 62.6655 133.023 60.7363 135.059C43.0434 153.743 23.8706 170.91 38.868 218.82C38.868 218.82 87.0973 224.458 120.977 256.593C132.274 267.3 141.973 280.953 147.761 298.322C170.911 367.799 75.4033 360.164 38.062 330.431C-2.19962 298.385 -5.82012 247.934 8.12014 231.917C8.12014 231.917 30.7152 296.982 101.962 307.057C101.962 307.057 71.1089 292.014 45.9901 265.543C14.4626 232.321 9.28292 182.679 35.221 145.298C38.934 139.938 43.3606 134.73 48.6063 129.901C86.8991 94.6696 84.9699 33.7003 34.9303 18.7961C34.9303 18.7961 80.8209 20.983 87.5069 68.6663C89.2247 80.941 86.9916 94.935 82.7368 106.54" stroke="#B3D0FF" stroke-width="0.5" stroke-linecap="round" stroke-linejoin="round"/>
<path d="M82.7367 106.552C82.7367 106.552 140.955 67.1742 192.29 114.099C192.29 114.099 205.332 130.482 223.487 129.408C223.487 129.408 201.857 155.512 144.814 156.928C87.7711 158.331 76.936 133.807 76.936 133.807C76.936 133.807 117.885 110.8 172.641 128.738C172.641 128.738 116.709 97.4376 72.853 125.122" stroke="#B3D0FF" stroke-width="0.5" stroke-linecap="round" stroke-linejoin="round"/>
</g>
<g opacity="0.18">
<path d="M72.1134 125.123C68.2022 127.398 61.9258 133.023 59.9966 135.059C42.3037 153.743 23.1309 170.91 38.1282 218.82C38.1282 218.82 86.3575 224.458 120.237 256.593C131.535 267.3 141.233 280.953 147.021 298.322C170.171 367.799 74.6636 360.164 37.3222 330.431C-2.93936 298.385 -6.55986 247.934 7.38039 231.917C7.38039 231.917 29.9755 296.982 101.223 307.057C101.223 307.057 70.3692 292.014 45.2503 265.543C13.7229 232.321 8.54318 182.679 34.4813 145.298C38.1943 139.938 42.6208 134.73 47.8666 129.901C86.1593 94.6696 84.2302 33.7003 34.1906 18.7961C34.1906 18.7961 80.0811 20.983 86.7672 68.6663C88.4849 80.941 86.2518 94.935 81.9971 106.54" fill="url(#paint2_linear_1_3508)"/>
<path d="M81.997 106.552C81.997 106.552 140.216 67.1742 191.55 114.099C191.55 114.099 204.592 130.482 222.747 129.408C222.747 129.408 201.117 155.512 144.074 156.928C87.0313 158.331 76.1963 133.807 76.1963 133.807C76.1963 133.807 117.145 110.8 171.902 128.738C171.902 128.738 115.969 97.4376 72.1133 125.122" fill="url(#paint3_linear_1_3508)"/>
</g>
<g filter="url(#filter2_d_1_3508)">
<path d="M150.998 312.215L127.623 309.826L110.036 291.471L137.084 275.947" stroke="#B3D0FF" stroke-width="0.5" stroke-linecap="round" stroke-linejoin="round"/>
</g>
<g filter="url(#filter3_d_1_3508)">
<path d="M119.484 349.962V326.891L142.555 340.38L122.88 314.781L145.21 291.47H110.036L122.51 258.072" stroke="#B3D0FF" stroke-width="0.5" stroke-linecap="round" stroke-linejoin="round"/>
</g>
<g filter="url(#filter4_d_1_3508)">
<path d="M85.34 248.667L89.8987 263.824H109.098L99.0424 294.075L79.2354 275.947L85.34 248.667Z" stroke="#B3D0FF" stroke-width="0.5" stroke-linecap="round" stroke-linejoin="round"/>
</g>
<g filter="url(#filter5_d_1_3508)">
<path d="M79.2354 275.947L89.8987 263.824L99.0424 294.075L127.623 309.826" stroke="#B3D0FF" stroke-width="0.5" stroke-linecap="round" stroke-linejoin="round"/>
</g>
<defs>
<filter id="filter0_d_1_3508" x="128.959" y="193.772" width="500.291" height="257.581" filterUnits="userSpaceOnUse" color-interpolation-filters="sRGB">
<feFlood flood-opacity="0" result="BackgroundImageFix"/>
<feColorMatrix in="SourceAlpha" type="matrix" values="0 0 0 0 0 0 0 0 0 0 0 0 0 0 0 0 0 0 127 0" result="hardAlpha"/>
<feOffset/>
<feGaussianBlur stdDeviation="9"/>
<feColorMatrix type="matrix" values="0 0 0 0 0.184314 0 0 0 0 0.403922 0 0 0 0 0.878431 0 0 0 0.75 0"/>
<feBlend mode="normal" in2="BackgroundImageFix" result="effect1_dropShadow_1_3508"/>
<feBlend mode="normal" in="SourceGraphic" in2="effect1_dropShadow_1_3508" result="shape"/>
</filter>
<filter id="filter1_d_1_3508" x="-17.5103" y="0.546082" width="259.247" height="369.864" filterUnits="userSpaceOnUse" color-interpolation-filters="sRGB">
<feFlood flood-opacity="0" result="BackgroundImageFix"/>
<feColorMatrix in="SourceAlpha" type="matrix" values="0 0 0 0 0 0 0 0 0 0 0 0 0 0 0 0 0 0 127 0" result="hardAlpha"/>
<feOffset/>
<feGaussianBlur stdDeviation="9"/>
<feColorMatrix type="matrix" values="0 0 0 0 0.184314 0 0 0 0 0.403922 0 0 0 0 0.878431 0 0 0 0.75 0"/>
<feBlend mode="normal" in2="BackgroundImageFix" result="effect1_dropShadow_1_3508"/>
<feBlend mode="normal" in="SourceGraphic" in2="effect1_dropShadow_1_3508" result="shape"/>
</filter>
<filter id="filter2_d_1_3508" x="91.7861" y="257.697" width="77.4619" height="72.7681" filterUnits="userSpaceOnUse" color-interpolation-filters="sRGB">
<feFlood flood-opacity="0" result="BackgroundImageFix"/>
<feColorMatrix in="SourceAlpha" type="matrix" values="0 0 0 0 0 0 0 0 0 0 0 0 0 0 0 0 0 0 127 0" result="hardAlpha"/>
<feOffset/>
<feGaussianBlur stdDeviation="9"/>
<feColorMatrix type="matrix" values="0 0 0 0 0.184314 0 0 0 0 0.403922 0 0 0 0 0.878431 0 0 0 0.75 0"/>
<feBlend mode="normal" in2="BackgroundImageFix" result="effect1_dropShadow_1_3508"/>
<feBlend mode="normal" in="SourceGraphic" in2="effect1_dropShadow_1_3508" result="shape"/>
</filter>
<filter id="filter3_d_1_3508" x="91.7861" y="239.822" width="71.6743" height="128.39" filterUnits="userSpaceOnUse" color-interpolation-filters="sRGB">
<feFlood flood-opacity="0" result="BackgroundImageFix"/>
<feColorMatrix in="SourceAlpha" type="matrix" values="0 0 0 0 0 0 0 0 0 0 0 0 0 0 0 0 0 0 127 0" result="hardAlpha"/>
<feOffset/>
<feGaussianBlur stdDeviation="9"/>
<feColorMatrix type="matrix" values="0 0 0 0 0.184314 0 0 0 0 0.403922 0 0 0 0 0.878431 0 0 0 0.75 0"/>
<feBlend mode="normal" in2="BackgroundImageFix" result="effect1_dropShadow_1_3508"/>
<feBlend mode="normal" in="SourceGraphic" in2="effect1_dropShadow_1_3508" result="shape"/>
</filter>
<filter id="filter4_d_1_3508" x="60.9854" y="230.417" width="66.3623" height="81.9078" filterUnits="userSpaceOnUse" color-interpolation-filters="sRGB">
<feFlood flood-opacity="0" result="BackgroundImageFix"/>
<feColorMatrix in="SourceAlpha" type="matrix" values="0 0 0 0 0 0 0 0 0 0 0 0 0 0 0 0 0 0 127 0" result="hardAlpha"/>
<feOffset/>
<feGaussianBlur stdDeviation="9"/>
<feColorMatrix type="matrix" values="0 0 0 0 0.184314 0 0 0 0 0.403922 0 0 0 0 0.878431 0 0 0 0.75 0"/>
<feBlend mode="normal" in2="BackgroundImageFix" result="effect1_dropShadow_1_3508"/>
<feBlend mode="normal" in="SourceGraphic" in2="effect1_dropShadow_1_3508" result="shape"/>
</filter>
<filter id="filter5_d_1_3508" x="60.9854" y="245.574" width="84.8877" height="82.502" filterUnits="userSpaceOnUse" color-interpolation-filters="sRGB">
<feFlood flood-opacity="0" result="BackgroundImageFix"/>
<feColorMatrix in="SourceAlpha" type="matrix" values="0 0 0 0 0 0 0 0 0 0 0 0 0 0 0 0 0 0 127 0" result="hardAlpha"/>
<feOffset/>
<feGaussianBlur stdDeviation="9"/>
<feColorMatrix type="matrix" values="0 0 0 0 0.184314 0 0 0 0 0.403922 0 0 0 0 0.878431 0 0 0 0.75 0"/>
<feBlend mode="normal" in2="BackgroundImageFix" result="effect1_dropShadow_1_3508"/>
<feBlend mode="normal" in="SourceGraphic" in2="effect1_dropShadow_1_3508" result="shape"/>
</filter>
<linearGradient id="paint0_linear_1_3508" x1="572.368" y1="255.016" x2="572.368" y2="255.016" gradientUnits="userSpaceOnUse">
<stop stop-color="white"/>
<stop offset="0.27" stop-color="#FEFEFC"/>
<stop offset="0.42" stop-color="#FEFCF4"/>
<stop offset="0.53" stop-color="#FDF9E7"/>
<stop offset="0.63" stop-color="#FCF4D3"/>
<stop offset="0.72" stop-color="#FAEEBA"/>
<stop offset="0.81" stop-color="#F8E79B"/>
<stop offset="0.88" stop-color="#F5DE77"/>
<stop offset="0.96" stop-color="#F3D44D"/>
<stop offset="1" stop-color="#F1CD30"/>
</linearGradient>
<linearGradient id="paint1_linear_1_3508" x1="213.617" y1="266.731" x2="213.617" y2="266.731" gradientUnits="userSpaceOnUse">
<stop stop-color="white"/>
<stop offset="0.27" stop-color="#FEFEFC"/>
<stop offset="0.42" stop-color="#FEFCF4"/>
<stop offset="0.53" stop-color="#FDF9E7"/>
<stop offset="0.63" stop-color="#FCF4D3"/>
<stop offset="0.72" stop-color="#FAEEBA"/>
<stop offset="0.81" stop-color="#F8E79B"/>
<stop offset="0.88" stop-color="#F5DE77"/>
<stop offset="0.96" stop-color="#F3D44D"/>
<stop offset="1" stop-color="#F1CD30"/>
</linearGradient>
<linearGradient id="paint2_linear_1_3508" x1="0.0072519" y1="185.485" x2="150.602" y2="185.485" gradientUnits="userSpaceOnUse">
<stop stop-color="#CAE3FF"/>
<stop offset="0.35" stop-color="#CAE3FF" stop-opacity="0"/>
</linearGradient>
<linearGradient id="paint3_linear_1_3508" x1="72.1133" y1="124.035" x2="222.747" y2="124.035" gradientUnits="userSpaceOnUse">
<stop offset="0.43" stop-color="#CAE3FF" stop-opacity="0"/>
<stop offset="1" stop-color="#CAE3FF"/>
</linearGradient>
</defs>
</svg>
