<svg width="218" height="56" viewBox="0 0 218 56" fill="none" xmlns="http://www.w3.org/2000/svg">
<g clip-path="url(#clip0_1_3399)">
<path d="M9.05094 38.08V52.304H4.02246V14.952H9.05094V18.816C11.0065 16.128 14.247 14.28 17.8787 14.28C24.9186 14.28 29.8912 19.6 29.8912 28.448C29.8912 37.296 24.9186 42.672 17.8787 42.672C14.3588 42.672 11.2299 41.048 9.05094 38.08ZM24.6392 28.448C24.6392 22.848 21.5663 18.76 16.5378 18.76C13.4648 18.76 10.3919 20.552 9.05094 22.736V34.216C10.3919 36.344 13.4648 38.192 16.5378 38.192C21.5663 38.192 24.6392 34.104 24.6392 28.448ZM33.9223 38.472L36.3248 34.776C38.1686 36.792 41.7444 38.64 45.376 38.64C49.1753 38.64 51.1867 37.072 51.1867 34.776C51.1867 32.088 48.1138 31.192 44.6497 30.408C40.0682 29.344 34.7045 28.112 34.7045 22.288C34.7045 17.976 38.392 14.28 44.9849 14.28C49.6223 14.28 52.9746 15.96 55.2654 18.144L53.0305 21.672C51.4661 19.768 48.449 18.368 45.0408 18.368C41.6326 18.368 39.5095 19.712 39.5095 21.896C39.5095 24.248 42.4148 25.032 45.7671 25.816C50.4604 26.88 56.0476 28.168 56.0476 34.384C56.0476 39.032 52.2483 42.672 45.1526 42.672C40.6269 42.672 36.66 41.272 33.9223 38.472ZM61.0634 52.584L61.8456 48.048C62.4602 48.328 63.41 48.496 64.0805 48.496C65.9243 48.496 67.1535 47.88 67.9916 45.864L69.556 42.28L58.4374 14.952H63.8011L72.2378 36.176L80.6742 14.952H86.0938L72.7965 47.152C71.0645 51.408 68.1033 52.92 64.1922 52.976C63.3542 52.976 61.8456 52.808 61.0634 52.584Z" fill="#F5F5F7"/>
<path d="M128.835 28.448C128.835 20.608 134.478 14.28 142.356 14.28C150.457 14.28 155.486 20.608 155.486 28.896V30.128H134.143C134.534 34.72 137.886 38.528 143.306 38.528C146.155 38.528 149.284 37.408 151.296 35.336L153.642 38.64C150.96 41.272 147.161 42.672 142.803 42.672C134.757 42.672 128.835 36.96 128.835 28.448ZM142.356 18.424C136.936 18.424 134.366 22.792 134.087 26.488H150.569C150.457 22.904 148.055 18.424 142.356 18.424ZM182.72 42H177.021L169.479 31.472L161.88 42H156.181L166.294 28.112L156.796 14.952H162.495L169.479 24.696L176.407 14.952H182.106L172.552 28.112L182.72 42ZM208.88 42H203.852V39.032C201.729 41.384 198.656 42.672 195.024 42.672C190.554 42.672 185.637 39.648 185.637 33.712C185.637 27.552 190.498 24.864 195.024 24.864C198.656 24.864 201.784 26.04 203.852 28.448V23.968C203.852 20.608 201.114 18.592 197.259 18.592C194.186 18.592 191.56 19.768 189.157 22.176L186.978 18.704C189.995 15.736 193.683 14.28 198.041 14.28C203.908 14.28 208.88 16.856 208.88 23.744V42ZM203.852 36.064V31.472C202.343 29.456 199.717 28.392 196.924 28.392C193.292 28.392 190.722 30.576 190.722 33.768C190.722 36.96 193.292 39.144 196.924 39.144C199.717 39.144 202.343 38.08 203.852 36.064Z" fill="#F5F5F7"/>
<path d="M99.7086 38.8014V44.8029C99.2477 48.1009 91.8757 47.9377 91.5684 44.8029V23.2674C91.5684 19.0605 96.3291 16.287 99.7086 20.1677L105.084 28.3599L110.459 36.6804C114.299 43.5327 121.056 41.0854 121.056 36.0279V30.8071V25.4233V16.5784C121.056 11.0664 109.691 11.0663 109.691 16.5784V24.4094" stroke="#F5F5F7" stroke-width="3.5" stroke-linecap="round"/>
<path d="M115.624 9.33333C118.195 9.33333 120.28 7.244 120.28 4.66667C120.28 2.08934 118.195 0 115.624 0C113.052 0 110.968 2.08934 110.968 4.66667C110.968 7.244 113.052 9.33333 115.624 9.33333Z" fill="#F5F5F7"/>
<path d="M111.356 4.66667C112.908 5.31481 116.4 5.98889 119.504 3.5" stroke="#0A6EBD" stroke-linecap="round"/>
<path d="M116.012 5.83339C116.441 5.83339 116.788 5.48516 116.788 5.05561C116.788 4.62605 116.441 4.27783 116.012 4.27783C115.584 4.27783 115.236 4.62605 115.236 5.05561C115.236 5.48516 115.584 5.83339 116.012 5.83339Z" fill="#F5F5F7" stroke="#0A6EBD"/>
<path d="M115.624 8.94447C117.982 8.94447 119.892 7.02924 119.892 4.66669C119.892 2.30414 117.982 0.388916 115.624 0.388916C113.267 0.388916 111.356 2.30414 111.356 4.66669C111.356 7.02924 113.267 8.94447 115.624 8.94447Z" stroke="#0A6EBD"/>
</g>
<defs>
<clipPath id="clip0_1_3399">
<rect width="217.28" height="56" fill="white"/>
</clipPath>
</defs>
</svg>
